<svg id="visual" viewBox="0 0 900 600" width="900" height="600" xmlns="http://www.w3.org/2000/svg" xmlns:xlink="http://www.w3.org/1999/xlink" version="1.1"><path d="M0 43L13.7 55C27.3 67 54.7 91 82 91C109.3 91 136.7 67 163.8 69C191 71 218 99 245.2 114C272.3 129 299.7 131 327 124C354.3 117 381.7 101 409 93C436.3 85 463.7 85 491 78C518.3 71 545.7 57 573 51C600.3 45 627.7 47 654.8 47C682 47 709 45 736.2 56C763.3 67 790.7 91 818 93C845.3 95 872.7 75 886.3 65L900 55L900 0L886.3 0C872.7 0 845.3 0 818 0C790.7 0 763.3 0 736.2 0C709 0 682 0 654.8 0C627.7 0 600.3 0 573 0C545.7 0 518.3 0 491 0C463.7 0 436.3 0 409 0C381.7 0 354.3 0 327 0C299.7 0 272.3 0 245.2 0C218 0 191 0 163.8 0C136.7 0 109.3 0 82 0C54.7 0 27.3 0 13.7 0L0 0Z" fill="#6198ff"></path><path d="M0 121L13.7 129C27.3 137 54.7 153 82 157C109.3 161 136.7 153 163.8 153C191 153 218 161 245.2 165C272.3 169 299.7 169 327 164C354.3 159 381.7 149 409 143C436.3 137 463.7 135 491 132C518.3 129 545.7 125 573 127C600.3 129 627.7 137 654.8 140C682 143 709 141 736.2 148C763.3 155 790.7 171 818 173C845.3 175 872.7 163 886.3 157L900 151L900 53L886.3 63C872.7 73 845.3 93 818 91C790.7 89 763.3 65 736.2 54C709 43 682 45 654.8 45C627.7 45 600.3 43 573 49C545.7 55 518.3 69 491 76C463.7 83 436.3 83 409 91C381.7 99 354.3 115 327 122C299.7 129 272.3 127 245.2 112C218 97 191 69 163.8 67C136.7 65 109.3 89 82 89C54.7 89 27.3 65 13.7 53L0 41Z" fill="#3c80ff"></path><path d="M0 229L13.7 246C27.3 263 54.7 297 82 321C109.3 345 136.7 359 163.8 372C191 385 218 397 245.2 378C272.3 359 299.7 309 327 298C354.3 287 381.7 315 409 316C436.3 317 463.7 291 491 271C518.3 251 545.7 237 573 244C600.3 251 627.7 279 654.8 281C682 283 709 259 736.2 276C763.3 293 790.7 351 818 379C845.3 407 872.7 405 886.3 404L900 403L900 149L886.3 155C872.7 161 845.3 173 818 171C790.7 169 763.3 153 736.2 146C709 139 682 141 654.8 138C627.7 135 600.3 127 573 125C545.7 123 518.3 127 491 130C463.7 133 436.3 135 409 141C381.7 147 354.3 157 327 162C299.7 167 272.3 167 245.2 163C218 159 191 151 163.8 151C136.7 151 109.3 159 82 155C54.7 151 27.3 135 13.7 127L0 119Z" fill="#0066ff"></path><path d="M0 511L13.7 514C27.3 517 54.7 523 82 513C109.3 503 136.7 477 163.8 475C191 473 218 495 245.2 495C272.3 495 299.7 473 327 468C354.3 463 381.7 475 409 482C436.3 489 463.7 491 491 486C518.3 481 545.7 469 573 460C600.3 451 627.7 445 654.8 448C682 451 709 463 736.2 479C763.3 495 790.7 515 818 518C845.3 521 872.7 507 886.3 500L900 493L900 401L886.3 402C872.7 403 845.3 405 818 377C790.7 349 763.3 291 736.2 274C709 257 682 281 654.8 279C627.7 277 600.3 249 573 242C545.7 235 518.3 249 491 269C463.7 289 436.3 315 409 314C381.7 313 354.3 285 327 296C299.7 307 272.3 357 245.2 376C218 395 191 383 163.8 370C136.7 357 109.3 343 82 319C54.7 295 27.3 261 13.7 244L0 227Z" fill="#0059dd"></path><path d="M0 601L13.7 601C27.3 601 54.7 601 82 601C109.3 601 136.7 601 163.8 601C191 601 218 601 245.2 601C272.3 601 299.7 601 327 601C354.3 601 381.7 601 409 601C436.3 601 463.7 601 491 601C518.3 601 545.7 601 573 601C600.3 601 627.7 601 654.8 601C682 601 709 601 736.2 601C763.3 601 790.7 601 818 601C845.3 601 872.7 601 886.3 601L900 601L900 491L886.3 498C872.7 505 845.3 519 818 516C790.7 513 763.3 493 736.2 477C709 461 682 449 654.8 446C627.7 443 600.3 449 573 458C545.7 467 518.3 479 491 484C463.7 489 436.3 487 409 480C381.7 473 354.3 461 327 466C299.7 471 272.3 493 245.2 493C218 493 191 471 163.8 473C136.7 475 109.3 501 82 511C54.7 521 27.3 515 13.7 512L0 509Z" fill="#004cbb"></path></svg>